<svg width="100" height="24" viewBox="0 0 100 24" fill="none" xmlns="http://www.w3.org/2000/svg">
<path d="M12.0654 13.834C11.9365 15.1992 11.4326 16.2656 10.5537 17.0332C9.6748 17.7949 8.50586 18.1758 7.04688 18.1758C6.02734 18.1758 5.12793 17.9355 4.34863 17.4551C3.5752 16.9688 2.97754 16.2803 2.55566 15.3896C2.13379 14.499 1.91406 13.4648 1.89648 12.2871V11.0918C1.89648 9.88477 2.11035 8.82129 2.53809 7.90137C2.96582 6.98145 3.57812 6.27246 4.375 5.77441C5.17773 5.27637 6.10352 5.02734 7.15234 5.02734C8.56445 5.02734 9.70117 5.41113 10.5625 6.17871C11.4238 6.94629 11.9248 8.03027 12.0654 9.43066H9.85059C9.74512 8.51074 9.47559 7.84863 9.04199 7.44434C8.61426 7.03418 7.98438 6.8291 7.15234 6.8291C6.18555 6.8291 5.44141 7.18359 4.91992 7.89258C4.4043 8.5957 4.14062 9.62988 4.12891 10.9951V12.1289C4.12891 13.5117 4.375 14.5664 4.86719 15.293C5.36523 16.0195 6.0918 16.3828 7.04688 16.3828C7.91992 16.3828 8.57617 16.1865 9.01562 15.7939C9.45508 15.4014 9.7334 14.748 9.85059 13.834H12.0654ZM16.126 18H13.9902V4.5H16.126V18ZM20.7314 18H18.5957V8.49023H20.7314V18ZM18.4639 6.02051C18.4639 5.69238 18.5664 5.41992 18.7715 5.20312C18.9824 4.98633 19.2812 4.87793 19.668 4.87793C20.0547 4.87793 20.3535 4.98633 20.5645 5.20312C20.7754 5.41992 20.8809 5.69238 20.8809 6.02051C20.8809 6.34277 20.7754 6.6123 20.5645 6.8291C20.3535 7.04004 20.0547 7.14551 19.668 7.14551C19.2812 7.14551 18.9824 7.04004 18.7715 6.8291C18.5664 6.6123 18.4639 6.34277 18.4639 6.02051ZM27.2529 18.1758C25.8994 18.1758 24.8008 17.751 23.957 16.9014C23.1191 16.0459 22.7002 14.9092 22.7002 13.4912V13.2275C22.7002 12.2783 22.8818 11.4316 23.2451 10.6875C23.6143 9.9375 24.1299 9.35449 24.792 8.93848C25.4541 8.52246 26.1924 8.31445 27.0068 8.31445C28.3018 8.31445 29.3008 8.72754 30.0039 9.55371C30.7129 10.3799 31.0674 11.5488 31.0674 13.0605V13.9219H24.8535C24.918 14.707 25.1787 15.3281 25.6357 15.7852C26.0986 16.2422 26.6787 16.4707 27.376 16.4707C28.3545 16.4707 29.1514 16.0752 29.7666 15.2842L30.918 16.3828C30.5371 16.9512 30.0273 17.3936 29.3887 17.71C28.7559 18.0205 28.0439 18.1758 27.2529 18.1758ZM26.998 10.0283C26.4121 10.0283 25.9375 10.2334 25.5742 10.6436C25.2168 11.0537 24.9883 11.625 24.8887 12.3574H28.958V12.1992C28.9111 11.4844 28.7207 10.9453 28.3867 10.582C28.0527 10.2129 27.5898 10.0283 26.998 10.0283ZM34.7148 8.49023L34.7764 9.58887C35.4795 8.73926 36.4023 8.31445 37.5449 8.31445C39.5254 8.31445 40.5332 9.44824 40.5684 11.7158V18H38.4326V11.8389C38.4326 11.2354 38.3008 10.79 38.0371 10.5029C37.7793 10.21 37.3545 10.0635 36.7627 10.0635C35.9014 10.0635 35.2598 10.4531 34.8379 11.2324V18H32.7021V8.49023H34.7148ZM45.4287 6.17871V8.49023H47.1074V10.0723H45.4287V15.3809C45.4287 15.7441 45.499 16.0078 45.6396 16.1719C45.7861 16.3301 46.0439 16.4092 46.4131 16.4092C46.6592 16.4092 46.9082 16.3799 47.1602 16.3213V17.9736C46.6738 18.1084 46.2051 18.1758 45.7539 18.1758C44.1133 18.1758 43.293 17.2705 43.293 15.46V10.0723H41.7285V8.49023H43.293V6.17871H45.4287ZM51.0186 18H48.8828V4.5H51.0186V18ZM52.9521 13.1572C52.9521 12.2256 53.1367 11.3877 53.5059 10.6436C53.875 9.89355 54.3936 9.31934 55.0615 8.9209C55.7295 8.5166 56.4971 8.31445 57.3643 8.31445C58.6475 8.31445 59.6875 8.72754 60.4844 9.55371C61.2871 10.3799 61.7207 11.4756 61.7852 12.8408L61.7939 13.3418C61.7939 14.2793 61.6123 15.1172 61.249 15.8555C60.8916 16.5938 60.376 17.165 59.7021 17.5693C59.0342 17.9736 58.2607 18.1758 57.3818 18.1758C56.04 18.1758 54.9648 17.7305 54.1562 16.8398C53.3535 15.9434 52.9521 14.751 52.9521 13.2627V13.1572ZM55.0879 13.3418C55.0879 14.3203 55.29 15.0879 55.6943 15.6445C56.0986 16.1953 56.6611 16.4707 57.3818 16.4707C58.1025 16.4707 58.6621 16.1895 59.0605 15.627C59.4648 15.0645 59.667 14.2412 59.667 13.1572C59.667 12.1963 59.459 11.4346 59.043 10.8721C58.6328 10.3096 58.0732 10.0283 57.3643 10.0283C56.667 10.0283 56.1133 10.3066 55.7031 10.8633C55.293 11.4141 55.0879 12.2402 55.0879 13.3418ZM63.2266 13.1748C63.2266 11.6982 63.5723 10.5205 64.2637 9.6416C64.9609 8.75684 65.8838 8.31445 67.0322 8.31445C68.1162 8.31445 68.9688 8.69238 69.5898 9.44824L69.6865 8.49023H71.6113V17.71C71.6113 18.958 71.2217 19.9424 70.4424 20.6631C69.6689 21.3838 68.623 21.7441 67.3047 21.7441C66.6074 21.7441 65.9248 21.5977 65.2568 21.3047C64.5947 21.0176 64.0908 20.6396 63.7451 20.1709L64.7559 18.8877C65.4121 19.667 66.2207 20.0566 67.1816 20.0566C67.8906 20.0566 68.4502 19.8633 68.8604 19.4766C69.2705 19.0957 69.4756 18.5332 69.4756 17.7891V17.1475C68.8604 17.833 68.04 18.1758 67.0146 18.1758C65.9014 18.1758 64.9902 17.7334 64.2812 16.8486C63.5781 15.9639 63.2266 14.7393 63.2266 13.1748ZM65.3535 13.3594C65.3535 14.3145 65.5469 15.0674 65.9336 15.6182C66.3262 16.1631 66.8682 16.4355 67.5596 16.4355C68.4209 16.4355 69.0596 16.0664 69.4756 15.3281V11.1445C69.0713 10.4238 68.4385 10.0635 67.5771 10.0635C66.874 10.0635 66.3262 10.3418 65.9336 10.8984C65.5469 11.4551 65.3535 12.2754 65.3535 13.3594ZM73.4131 13.1572C73.4131 12.2256 73.5977 11.3877 73.9668 10.6436C74.3359 9.89355 74.8545 9.31934 75.5225 8.9209C76.1904 8.5166 76.958 8.31445 77.8252 8.31445C79.1084 8.31445 80.1484 8.72754 80.9453 9.55371C81.748 10.3799 82.1816 11.4756 82.2461 12.8408L82.2549 13.3418C82.2549 14.2793 82.0732 15.1172 81.71 15.8555C81.3525 16.5938 80.8369 17.165 80.1631 17.5693C79.4951 17.9736 78.7217 18.1758 77.8428 18.1758C76.501 18.1758 75.4258 17.7305 74.6172 16.8398C73.8145 15.9434 73.4131 14.751 73.4131 13.2627V13.1572ZM75.5488 13.3418C75.5488 14.3203 75.751 15.0879 76.1553 15.6445C76.5596 16.1953 77.1221 16.4707 77.8428 16.4707C78.5635 16.4707 79.123 16.1895 79.5215 15.627C79.9258 15.0645 80.1279 14.2412 80.1279 13.1572C80.1279 12.1963 79.9199 11.4346 79.5039 10.8721C79.0938 10.3096 78.5342 10.0283 77.8252 10.0283C77.1279 10.0283 76.5742 10.3066 76.1641 10.8633C75.7539 11.4141 75.5488 12.2402 75.5488 13.3418Z" fill="#3049A0"/>
</svg>
