<svg width="32" height="32" viewBox="0 0 32 32" fill="none" xmlns="http://www.w3.org/2000/svg">
<path fill-rule="evenodd" clip-rule="evenodd" d="M3.2 0H28.8C30.5673 0 32 1.43269 32 3.2V28.8C32 30.5673 30.5673 32 28.8 32H3.2C1.43269 32 0 30.5673 0 28.8V3.2C0 1.43269 1.43269 0 3.2 0ZM3.2 2.08696C2.58528 2.08696 2.08696 2.58528 2.08696 3.2V28.8C2.08696 29.4147 2.58528 29.913 3.2 29.913H28.8C29.4147 29.913 29.913 29.4147 29.913 28.8V3.2C29.913 2.58528 29.4147 2.08696 28.8 2.08696H3.2Z" fill="#3049A0"/>
<path d="M14.7079 7.93018C14.9854 7.93018 15.2083 8.01457 15.3768 8.18335C15.5453 8.35214 15.6295 8.57057 15.6295 8.83864V17.4467C15.6295 17.7048 15.5403 17.9233 15.3619 18.102C15.1836 18.2708 14.9557 18.3551 14.6782 18.3551C14.4305 18.3551 14.2174 18.2708 14.039 18.102C13.8607 17.9233 13.7715 17.7048 13.7715 17.4467V13.9767H9.02987V17.4467C9.02987 17.7048 8.93573 17.9233 8.74746 18.102C8.55918 18.2708 8.34118 18.3551 8.09344 18.3551C7.82589 18.3551 7.60293 18.2708 7.42456 18.102C7.2561 17.9233 7.17188 17.7048 7.17188 17.4467V8.83864C7.17188 8.5805 7.26106 8.36703 7.43943 8.19825C7.61779 8.01953 7.84571 7.93018 8.12317 7.93018C8.3709 7.93018 8.58395 8.01953 8.76232 8.19825C8.94069 8.36703 9.02987 8.5805 9.02987 8.83864V12.264H13.7715V8.83864C13.7715 8.5805 13.8656 8.36703 14.0539 8.19825C14.2422 8.01953 14.4602 7.93018 14.7079 7.93018Z" fill="#3049A0"/>
<path d="M24.8414 14.1852C24.8315 14.4234 24.7374 14.617 24.559 14.766C24.3807 14.9149 24.1726 14.9894 23.9347 14.9894H19.0296C19.1485 15.5752 19.421 16.0368 19.8471 16.3744C20.2732 16.702 20.7538 16.8659 21.2889 16.8659C21.6952 16.8659 22.0123 16.8311 22.2402 16.7616C22.4682 16.6822 22.6465 16.6028 22.7753 16.5233C22.9141 16.434 23.0082 16.3744 23.0578 16.3446C23.2361 16.2553 23.4046 16.2106 23.5631 16.2106C23.7712 16.2106 23.9496 16.285 24.0982 16.434C24.2469 16.5829 24.3212 16.7566 24.3212 16.9552C24.3212 17.2233 24.1825 17.4665 23.905 17.685C23.6275 17.9133 23.2559 18.1069 22.7902 18.2658C22.3245 18.4246 21.8538 18.5041 21.3781 18.5041C20.5457 18.5041 19.8174 18.3303 19.1931 17.9828C18.5787 17.6353 18.1031 17.1588 17.7662 16.5531C17.4293 15.9375 17.2608 15.2475 17.2608 14.483C17.2608 13.6292 17.4392 12.8796 17.7959 12.2342C18.1526 11.5888 18.6233 11.0974 19.208 10.7598C19.7926 10.4123 20.4169 10.2386 21.0809 10.2386C21.7349 10.2386 22.3492 10.4173 22.924 10.7747C23.5086 11.1321 23.9744 11.6137 24.3212 12.2193C24.668 12.8249 24.8414 13.4802 24.8414 14.1852ZM21.0809 11.8768C19.9314 11.8768 19.2526 12.4179 19.0445 13.5001H22.9389V13.3958C22.8992 12.9788 22.6961 12.6214 22.3294 12.3236C21.9628 12.0257 21.5466 11.8768 21.0809 11.8768Z" fill="#3049A0"/>
<path d="M7.79944 23.6997C7.79944 23.7897 7.76806 23.8659 7.70531 23.9283C7.64604 23.9871 7.57108 24.0166 7.48043 24.0166C7.39327 24.0166 7.32005 23.9871 7.26078 23.9283C7.20151 23.8659 7.17188 23.7897 7.17188 23.6997V20.4897C7.17188 20.3997 7.20151 20.3252 7.26078 20.2663C7.32354 20.204 7.40024 20.1729 7.49089 20.1729C7.57805 20.1729 7.65127 20.204 7.71054 20.2663C7.76981 20.3252 7.79944 20.3997 7.79944 20.4897V23.6997Z" fill="#3049A0"/>
<path d="M10.5798 21.2377C10.6705 21.2377 10.7454 21.2688 10.8047 21.3312C10.864 21.39 10.8936 21.4645 10.8936 21.5545V22.8738C10.8936 23.2478 10.789 23.5404 10.5798 23.7517C10.3741 23.9629 10.0795 24.0685 9.69599 24.0685C9.31248 24.0685 9.01787 23.9629 8.81217 23.7517C8.60647 23.5404 8.50362 23.2478 8.50362 22.8738V21.5545C8.50362 21.4645 8.53325 21.39 8.59252 21.3312C8.65179 21.2688 8.72675 21.2377 8.8174 21.2377C8.90805 21.2377 8.98301 21.2688 9.04228 21.3312C9.10155 21.39 9.13118 21.4645 9.13118 21.5545V22.8738C9.13118 23.0851 9.17825 23.2426 9.27239 23.3465C9.36652 23.4469 9.50772 23.4971 9.69599 23.4971C9.88775 23.4971 10.0307 23.4469 10.1248 23.3465C10.219 23.2426 10.266 23.0851 10.266 22.8738V21.5545C10.266 21.4645 10.2957 21.39 10.3549 21.3312C10.4142 21.2688 10.4892 21.2377 10.5798 21.2377Z" fill="#3049A0"/>
<path d="M14.7998 21.1857C15.1449 21.1857 15.3837 21.2913 15.5162 21.5026C15.6487 21.7103 15.715 21.9995 15.715 22.37V23.6997C15.715 23.7897 15.6853 23.8659 15.6261 23.9283C15.5668 23.9871 15.4918 24.0166 15.4012 24.0166C15.3105 24.0166 15.2356 23.9871 15.1763 23.9283C15.117 23.8659 15.0874 23.7897 15.0874 23.6997V22.37C15.0874 22.1795 15.049 22.0306 14.9723 21.9233C14.8991 21.8125 14.7684 21.7571 14.5801 21.7571C14.3849 21.7571 14.2315 21.816 14.1199 21.9337C14.0118 22.048 13.9578 22.1934 13.9578 22.37V23.6997C13.9578 23.7897 13.9281 23.8659 13.8689 23.9283C13.8096 23.9871 13.7346 24.0166 13.644 24.0166C13.5533 24.0166 13.4784 23.9871 13.4191 23.9283C13.3598 23.8659 13.3302 23.7897 13.3302 23.6997V22.37C13.3302 22.1795 13.2919 22.0306 13.2151 21.9233C13.1419 21.8125 13.0112 21.7571 12.8229 21.7571C12.6277 21.7571 12.4743 21.816 12.3627 21.9337C12.2546 22.048 12.2006 22.1934 12.2006 22.37V23.6997C12.2006 23.7897 12.1709 23.8659 12.1117 23.9283C12.0524 23.9871 11.9774 24.0166 11.8868 24.0166C11.7962 24.0166 11.7212 23.9871 11.6619 23.9283C11.6027 23.8659 11.573 23.7897 11.573 23.6997V21.5545C11.573 21.4645 11.6027 21.39 11.6619 21.3312C11.7212 21.2688 11.7962 21.2377 11.8868 21.2377C11.9774 21.2377 12.0524 21.2688 12.1117 21.3312C12.1709 21.39 12.2006 21.4645 12.2006 21.5545V21.6376C12.2947 21.513 12.4133 21.4073 12.5562 21.3208C12.7026 21.2307 12.8648 21.1857 13.0426 21.1857C13.4819 21.1857 13.7625 21.3762 13.8846 21.7571C13.9647 21.6116 14.085 21.4801 14.2454 21.3623C14.4093 21.2446 14.5941 21.1857 14.7998 21.1857Z" fill="#3049A0"/>
<path d="M16.9851 23.6997C16.9851 23.7897 16.9555 23.8659 16.8962 23.9283C16.837 23.9871 16.762 24.0166 16.6713 24.0166C16.5807 24.0166 16.5057 23.9871 16.4465 23.9283C16.3872 23.8659 16.3576 23.7897 16.3576 23.6997V21.5545C16.3576 21.4645 16.3872 21.39 16.4465 21.3312C16.5057 21.2688 16.5807 21.2377 16.6713 21.2377C16.762 21.2377 16.837 21.2688 16.8962 21.3312C16.9555 21.39 16.9851 21.4645 16.9851 21.5545V23.6997ZM16.6661 20.9C16.5476 20.9 16.4639 20.881 16.4151 20.8429C16.3663 20.8048 16.3419 20.7373 16.3419 20.6403V20.5416C16.3419 20.4447 16.368 20.3772 16.4203 20.3391C16.4726 20.301 16.5563 20.2819 16.6713 20.2819C16.7934 20.2819 16.8788 20.301 16.9276 20.3391C16.9764 20.3772 17.0008 20.4447 17.0008 20.5416V20.6403C17.0008 20.7408 16.9747 20.81 16.9224 20.8481C16.8736 20.8827 16.7881 20.9 16.6661 20.9Z" fill="#3049A0"/>
<path d="M19.7063 21.2377C19.7969 21.2377 19.8719 21.2688 19.9312 21.3312C19.9904 21.39 20.0201 21.4645 20.0201 21.5545V22.8738C20.0201 23.2478 19.9155 23.5404 19.7063 23.7517C19.5006 23.9629 19.206 24.0685 18.8225 24.0685C18.439 24.0685 18.1444 23.9629 17.9387 23.7517C17.733 23.5404 17.6301 23.2478 17.6301 22.8738V21.5545C17.6301 21.4645 17.6597 21.39 17.719 21.3312C17.7783 21.2688 17.8532 21.2377 17.9439 21.2377C18.0345 21.2377 18.1095 21.2688 18.1688 21.3312C18.228 21.39 18.2577 21.4645 18.2577 21.5545V22.8738C18.2577 23.0851 18.3047 23.2426 18.3989 23.3465C18.493 23.4469 18.6342 23.4971 18.8225 23.4971C19.0142 23.4971 19.1572 23.4469 19.2513 23.3465C19.3454 23.2426 19.3925 23.0851 19.3925 22.8738V21.5545C19.3925 21.4645 19.4222 21.39 19.4814 21.3312C19.5407 21.2688 19.6157 21.2377 19.7063 21.2377Z" fill="#3049A0"/>
<path d="M23.9262 21.1857C24.2714 21.1857 24.5102 21.2913 24.6427 21.5026C24.7752 21.7103 24.8414 21.9995 24.8414 22.37V23.6997C24.8414 23.7897 24.8118 23.8659 24.7525 23.9283C24.6933 23.9871 24.6183 24.0166 24.5277 24.0166C24.437 24.0166 24.362 23.9871 24.3028 23.9283C24.2435 23.8659 24.2139 23.7897 24.2139 23.6997V22.37C24.2139 22.1795 24.1755 22.0306 24.0988 21.9233C24.0256 21.8125 23.8949 21.7571 23.7066 21.7571C23.5113 21.7571 23.3579 21.816 23.2464 21.9337C23.1383 22.048 23.0843 22.1934 23.0843 22.37V23.6997C23.0843 23.7897 23.0546 23.8659 22.9953 23.9283C22.9361 23.9871 22.8611 24.0166 22.7705 24.0166C22.6798 24.0166 22.6049 23.9871 22.5456 23.9283C22.4863 23.8659 22.4567 23.7897 22.4567 23.6997V22.37C22.4567 22.1795 22.4183 22.0306 22.3416 21.9233C22.2684 21.8125 22.1377 21.7571 21.9494 21.7571C21.7542 21.7571 21.6008 21.816 21.4892 21.9337C21.3811 22.048 21.3271 22.1934 21.3271 22.37V23.6997C21.3271 23.7897 21.2974 23.8659 21.2382 23.9283C21.1789 23.9871 21.1039 24.0166 21.0133 24.0166C20.9226 24.0166 20.8477 23.9871 20.7884 23.9283C20.7291 23.8659 20.6995 23.7897 20.6995 23.6997V21.5545C20.6995 21.4645 20.7291 21.39 20.7884 21.3312C20.8477 21.2688 20.9226 21.2377 21.0133 21.2377C21.1039 21.2377 21.1789 21.2688 21.2382 21.3312C21.2974 21.39 21.3271 21.4645 21.3271 21.5545V21.6376C21.4212 21.513 21.5397 21.4073 21.6827 21.3208C21.8291 21.2307 21.9912 21.1857 22.1691 21.1857C22.6083 21.1857 22.889 21.3762 23.011 21.7571C23.0912 21.6116 23.2115 21.4801 23.3719 21.3623C23.5358 21.2446 23.7205 21.1857 23.9262 21.1857Z" fill="#3049A0"/>
</svg>
