<svg width="100" height="24" viewBox="0 0 100 24" fill="none" xmlns="http://www.w3.org/2000/svg">
<path d="M17.126 5.72C17.462 5.72 17.732 5.822 17.936 6.026C18.14 6.23 18.242 6.494 18.242 6.818V17.222C18.242 17.534 18.134 17.798 17.918 18.014C17.702 18.218 17.426 18.32 17.09 18.32C16.79 18.32 16.532 18.218 16.316 18.014C16.1 17.798 15.992 17.534 15.992 17.222V13.028H10.25V17.222C10.25 17.534 10.136 17.798 9.908 18.014C9.68 18.218 9.416 18.32 9.116 18.32C8.792 18.32 8.522 18.218 8.306 18.014C8.102 17.798 8 17.534 8 17.222V6.818C8 6.506 8.108 6.248 8.324 6.044C8.54 5.828 8.816 5.72 9.152 5.72C9.452 5.72 9.71 5.828 9.926 6.044C10.142 6.248 10.25 6.506 10.25 6.818V10.958H15.992V6.818C15.992 6.506 16.106 6.248 16.334 6.044C16.562 5.828 16.826 5.72 17.126 5.72Z" fill="#3049A0"/>
<path d="M29.3975 13.28C29.3855 13.568 29.2715 13.802 29.0555 13.982C28.8395 14.162 28.5875 14.252 28.2995 14.252H22.3595C22.5035 14.96 22.8335 15.518 23.3495 15.926C23.8655 16.322 24.4475 16.52 25.0955 16.52C25.5875 16.52 25.9715 16.478 26.2475 16.394C26.5235 16.298 26.7395 16.202 26.8955 16.106C27.0635 15.998 27.1775 15.926 27.2375 15.89C27.4535 15.782 27.6575 15.728 27.8495 15.728C28.1015 15.728 28.3175 15.818 28.4975 15.998C28.6775 16.178 28.7675 16.388 28.7675 16.628C28.7675 16.952 28.5995 17.246 28.2635 17.51C27.9275 17.786 27.4775 18.02 26.9135 18.212C26.3495 18.404 25.7795 18.5 25.2035 18.5C24.1955 18.5 23.3135 18.29 22.5575 17.87C21.8135 17.45 21.2375 16.874 20.8295 16.142C20.4215 15.398 20.2175 14.564 20.2175 13.64C20.2175 12.608 20.4335 11.702 20.8655 10.922C21.2975 10.142 21.8675 9.548 22.5755 9.14C23.2835 8.72 24.0395 8.51 24.8435 8.51C25.6355 8.51 26.3795 8.726 27.0755 9.158C27.7835 9.59 28.3475 10.172 28.7675 10.904C29.1875 11.636 29.3975 12.428 29.3975 13.28ZM24.8435 10.49C23.4515 10.49 22.6295 11.144 22.3775 12.452H27.0935V12.326C27.0455 11.822 26.7995 11.39 26.3555 11.03C25.9115 10.67 25.4075 10.49 24.8435 10.49Z" fill="#3049A0"/>
<path d="M33.5389 17.222C33.5389 17.534 33.4309 17.798 33.2149 18.014C33.0109 18.218 32.7529 18.32 32.4409 18.32C32.1409 18.32 31.8889 18.218 31.6849 18.014C31.4809 17.798 31.3789 17.534 31.3789 17.222V6.098C31.3789 5.786 31.4809 5.528 31.6849 5.324C31.9009 5.108 32.1649 5 32.4769 5C32.7769 5 33.0289 5.108 33.2329 5.324C33.4369 5.528 33.5389 5.786 33.5389 6.098V17.222Z" fill="#3049A0"/>
<path d="M43.1086 8.69C43.4206 8.69 43.6786 8.798 43.8826 9.014C44.0866 9.218 44.1886 9.476 44.1886 9.788V14.36C44.1886 15.656 43.8286 16.67 43.1086 17.402C42.4006 18.134 41.3866 18.5 40.0666 18.5C38.7466 18.5 37.7326 18.134 37.0246 17.402C36.3166 16.67 35.9626 15.656 35.9626 14.36V9.788C35.9626 9.476 36.0646 9.218 36.2686 9.014C36.4726 8.798 36.7306 8.69 37.0426 8.69C37.3546 8.69 37.6126 8.798 37.8166 9.014C38.0206 9.218 38.1226 9.476 38.1226 9.788V14.36C38.1226 15.092 38.2846 15.638 38.6086 15.998C38.9326 16.346 39.4186 16.52 40.0666 16.52C40.7266 16.52 41.2186 16.346 41.5426 15.998C41.8666 15.638 42.0286 15.092 42.0286 14.36V9.788C42.0286 9.476 42.1306 9.218 42.3346 9.014C42.5386 8.798 42.7966 8.69 43.1086 8.69Z" fill="#3049A0"/>
<path d="M57.633 8.51C58.821 8.51 59.643 8.876 60.099 9.608C60.555 10.328 60.783 11.33 60.783 12.614V17.222C60.783 17.534 60.681 17.798 60.477 18.014C60.273 18.218 60.015 18.32 59.703 18.32C59.391 18.32 59.133 18.218 58.929 18.014C58.725 17.798 58.623 17.534 58.623 17.222V12.614C58.623 11.954 58.491 11.438 58.227 11.066C57.975 10.682 57.525 10.49 56.877 10.49C56.205 10.49 55.677 10.694 55.293 11.102C54.921 11.498 54.735 12.002 54.735 12.614V17.222C54.735 17.534 54.633 17.798 54.429 18.014C54.225 18.218 53.967 18.32 53.655 18.32C53.343 18.32 53.085 18.218 52.881 18.014C52.677 17.798 52.575 17.534 52.575 17.222V12.614C52.575 11.954 52.443 11.438 52.179 11.066C51.927 10.682 51.477 10.49 50.829 10.49C50.157 10.49 49.629 10.694 49.245 11.102C48.873 11.498 48.687 12.002 48.687 12.614V17.222C48.687 17.534 48.585 17.798 48.381 18.014C48.177 18.218 47.919 18.32 47.607 18.32C47.295 18.32 47.037 18.218 46.833 18.014C46.629 17.798 46.527 17.534 46.527 17.222V9.788C46.527 9.476 46.629 9.218 46.833 9.014C47.037 8.798 47.295 8.69 47.607 8.69C47.919 8.69 48.177 8.798 48.381 9.014C48.585 9.218 48.687 9.476 48.687 9.788V10.076C49.011 9.644 49.419 9.278 49.911 8.978C50.415 8.666 50.973 8.51 51.585 8.51C53.097 8.51 54.063 9.17 54.483 10.49C54.759 9.986 55.173 9.53 55.725 9.122C56.289 8.714 56.925 8.51 57.633 8.51Z" fill="#3049A0"/>
<path d="M65.1548 17.222C65.1548 17.534 65.0528 17.798 64.8488 18.014C64.6448 18.218 64.3868 18.32 64.0748 18.32C63.7628 18.32 63.5048 18.218 63.3008 18.014C63.0968 17.798 62.9948 17.534 62.9948 17.222V9.788C62.9948 9.476 63.0968 9.218 63.3008 9.014C63.5048 8.798 63.7628 8.69 64.0748 8.69C64.3868 8.69 64.6448 8.798 64.8488 9.014C65.0528 9.218 65.1548 9.476 65.1548 9.788V17.222ZM64.0568 7.52C63.6488 7.52 63.3608 7.454 63.1928 7.322C63.0248 7.19 62.9408 6.956 62.9408 6.62V6.278C62.9408 5.942 63.0308 5.708 63.2108 5.576C63.3908 5.444 63.6788 5.378 64.0748 5.378C64.4948 5.378 64.7888 5.444 64.9568 5.576C65.1248 5.708 65.2088 5.942 65.2088 6.278V6.62C65.2088 6.968 65.1188 7.208 64.9388 7.34C64.7708 7.46 64.4768 7.52 64.0568 7.52Z" fill="#3049A0"/>
<path d="M74.5207 8.69C74.8327 8.69 75.0907 8.798 75.2947 9.014C75.4987 9.218 75.6007 9.476 75.6007 9.788V14.36C75.6007 15.656 75.2407 16.67 74.5207 17.402C73.8127 18.134 72.7987 18.5 71.4787 18.5C70.1587 18.5 69.1447 18.134 68.4367 17.402C67.7287 16.67 67.3747 15.656 67.3747 14.36V9.788C67.3747 9.476 67.4767 9.218 67.6807 9.014C67.8847 8.798 68.1427 8.69 68.4547 8.69C68.7667 8.69 69.0247 8.798 69.2287 9.014C69.4327 9.218 69.5347 9.476 69.5347 9.788V14.36C69.5347 15.092 69.6967 15.638 70.0207 15.998C70.3447 16.346 70.8307 16.52 71.4787 16.52C72.1387 16.52 72.6307 16.346 72.9547 15.998C73.2787 15.638 73.4407 15.092 73.4407 14.36V9.788C73.4407 9.476 73.5427 9.218 73.7467 9.014C73.9507 8.798 74.2087 8.69 74.5207 8.69Z" fill="#3049A0"/>
<path d="M89.0451 8.51C90.2331 8.51 91.0551 8.876 91.5111 9.608C91.9671 10.328 92.1951 11.33 92.1951 12.614V17.222C92.1951 17.534 92.0931 17.798 91.8891 18.014C91.6851 18.218 91.4271 18.32 91.1151 18.32C90.8031 18.32 90.5451 18.218 90.3411 18.014C90.1371 17.798 90.0351 17.534 90.0351 17.222V12.614C90.0351 11.954 89.9031 11.438 89.6391 11.066C89.3871 10.682 88.9371 10.49 88.2891 10.49C87.6171 10.49 87.0891 10.694 86.7051 11.102C86.3331 11.498 86.1471 12.002 86.1471 12.614V17.222C86.1471 17.534 86.0451 17.798 85.8411 18.014C85.6371 18.218 85.3791 18.32 85.0671 18.32C84.7551 18.32 84.4971 18.218 84.2931 18.014C84.0891 17.798 83.9871 17.534 83.9871 17.222V12.614C83.9871 11.954 83.8551 11.438 83.5911 11.066C83.3391 10.682 82.8891 10.49 82.2411 10.49C81.5691 10.49 81.0411 10.694 80.6571 11.102C80.2851 11.498 80.0991 12.002 80.0991 12.614V17.222C80.0991 17.534 79.9971 17.798 79.7931 18.014C79.5891 18.218 79.3311 18.32 79.0191 18.32C78.7071 18.32 78.4491 18.218 78.2451 18.014C78.0411 17.798 77.9391 17.534 77.9391 17.222V9.788C77.9391 9.476 78.0411 9.218 78.2451 9.014C78.4491 8.798 78.7071 8.69 79.0191 8.69C79.3311 8.69 79.5891 8.798 79.7931 9.014C79.9971 9.218 80.0991 9.476 80.0991 9.788V10.076C80.4231 9.644 80.8311 9.278 81.3231 8.978C81.8271 8.666 82.3851 8.51 82.9971 8.51C84.5091 8.51 85.4751 9.17 85.8951 10.49C86.1711 9.986 86.5851 9.53 87.1371 9.122C87.7011 8.714 88.3371 8.51 89.0451 8.51Z" fill="#3049A0"/>
</svg>
