<svg width="24" height="24" viewBox="0 0 24 24" fill="none" xmlns="http://www.w3.org/2000/svg">
<g clip-path="url(#clip0)">
<path d="M10.4207 18.7461C9.53514 19.6107 8.2979 19.8043 7.19159 19.2517C6.79165 19.0519 6.45282 18.776 6.18615 18.4455L4.73166 21.902C4.66549 22.0593 4.74301 22.1778 4.77938 22.2214C4.81575 22.265 4.91757 22.3615 5.07623 22.3153L6.1622 21.9986C6.28596 21.9626 6.4113 21.9452 6.53509 21.9452C7.05736 21.9452 7.55271 22.2538 7.7957 22.7651L8.30104 23.8284C8.37484 23.9837 8.50988 23.9993 8.56599 23.9981C8.62103 23.9973 8.75623 23.9787 8.82237 23.8214L11.1359 18.3232C10.8752 18.4018 10.6292 18.5426 10.4207 18.7461Z" fill="#3049A0"/>
<path d="M18.7973 21.902L17.2575 18.4455C16.999 18.776 16.667 19.0519 16.272 19.2517C15.1793 19.8043 13.9373 19.6107 13.0304 18.7461C12.8169 18.5426 12.5674 18.4018 12.3047 18.3232L14.7538 23.8214C14.8239 23.9787 14.9595 23.9973 15.0145 23.9981C15.0707 23.9992 15.2053 23.9837 15.2753 23.8284L15.7544 22.7651C15.9848 22.2538 16.4726 21.9452 16.9948 21.9452C17.1186 21.9452 17.2444 21.9626 17.369 21.9986L18.4628 22.3153C18.6226 22.3616 18.7221 22.2651 18.7573 22.2214C18.7927 22.1777 18.8673 22.0592 18.7973 21.902Z" fill="#3049A0"/>
<path d="M19.8248 9.73946C18.5705 8.85078 18.163 7.0863 18.897 5.72249C19.3382 4.90266 19.0933 4.09253 18.7171 3.60774C18.3407 3.12309 17.6311 2.70383 16.7685 2.9806C15.3335 3.44121 13.7615 2.65602 13.1901 1.19288C12.8466 0.313382 12.0895 0 11.4956 0C10.9016 0 10.1522 0.313382 9.83045 1.19292C9.29511 2.65611 7.74262 3.44121 6.29614 2.98065C5.4266 2.70392 4.72746 3.12309 4.36303 3.60779C3.9987 4.09258 3.7738 4.90261 4.23523 5.72253C5.00291 7.0863 4.63886 8.85083 3.40645 9.73951C2.66559 10.2738 2.55084 11.11 2.6904 11.7145C2.82996 12.3189 3.29889 13.0157 4.19615 13.1585C5.68869 13.396 6.78713 14.811 6.69695 16.3798C6.64266 17.3229 7.19875 17.9464 7.73718 18.2155C8.27564 18.4845 9.08525 18.5433 9.74262 17.9015C10.2893 17.3678 10.9964 17.1008 11.7064 17.1008C12.4166 17.1008 13.1298 17.3676 13.6898 17.9015C14.3631 18.5434 15.1713 18.4845 15.7031 18.2155C16.2349 17.9465 16.7755 17.323 16.698 16.3799C16.5692 14.811 17.6327 13.3961 19.1194 13.1585C20.0131 13.0157 20.4648 12.3189 20.5895 11.7145C20.7142 11.1099 20.5788 10.2737 19.8248 9.73946ZM11.6897 15.7452C8.43087 15.7452 5.7455 12.9777 5.70356 9.57602C5.66161 6.17433 8.27869 3.4068 11.5376 3.4068C14.7964 3.4068 17.4818 6.17428 17.5237 9.57598C17.5656 12.9777 14.9485 15.7452 11.6897 15.7452Z" fill="#3049A0"/>
<path d="M11.5503 4.55713C8.89909 4.55713 6.76995 6.80865 6.80407 9.57608C6.83819 12.3435 9.02281 14.595 11.6741 14.595C14.3254 14.595 16.4545 12.3435 16.4204 9.57608C16.3862 6.80865 14.2016 4.55713 11.5503 4.55713ZM14.0703 9.08946L11.106 11.3709C11.0119 11.4433 10.8984 11.4816 10.7824 11.4816C10.7525 11.4816 10.7224 11.4791 10.6924 11.4739C10.5462 11.4488 10.4151 11.3634 10.3285 11.2371L9.41696 9.90675C9.23885 9.64676 9.29456 9.28805 9.54129 9.10549C9.78807 8.92292 10.1324 8.98564 10.3106 9.24559L10.8936 10.0965L13.4089 8.16061C13.6523 7.97335 13.9977 8.02923 14.1803 8.2858C14.363 8.54228 14.3137 8.90207 14.0703 9.08946Z" fill="#3049A0"/>
</g>
<defs>
<clipPath id="clip0">
<rect width="22.9903" height="24" fill="white" transform="matrix(1 0 0.0123288 0.999924 0 0)"/>
</clipPath>
</defs>
</svg>
