<svg width="24" height="24" viewBox="0 0 24 24" fill="none" xmlns="http://www.w3.org/2000/svg">
<path fill-rule="evenodd" clip-rule="evenodd" d="M12 2C6.48 2 2 6.48 2 12C2 17.52 6.48 22 12 22C17.52 22 22 17.52 22 12C22 6.48 17.52 2 12 2ZM16.2417 7.76C15.0717 6.59 13.5417 6 12.0017 6V12L7.76172 16.24C10.1017 18.58 13.9017 18.58 16.2517 16.24C18.5917 13.9 18.5917 10.1 16.2417 7.76ZM4 12C4 16.42 7.58 20 12 20C16.42 20 20 16.42 20 12C20 7.58 16.42 4 12 4C7.58 4 4 7.58 4 12Z" fill="#3049A0"/>
</svg>
