<svg width="24" height="24" viewBox="0 0 24 24" fill="none" xmlns="http://www.w3.org/2000/svg">
<path fill-rule="evenodd" clip-rule="evenodd" d="M17.3026 9H7.36594C7.27208 8.99962 7.18241 9.03883 7.11896 9.10799C7.05551 9.17715 7.02416 9.26986 7.0326 9.36334L7.8906 18.7873C7.95302 19.4742 8.52893 20.0001 9.2186 20H15.4499C16.1396 20.0001 16.7155 19.4742 16.7779 18.7873L17.6346 9.36334C17.643 9.27014 17.6117 9.17773 17.5486 9.10867C17.4855 9.03951 17.3962 9.00007 17.3026 9ZM11.168 17.6667C11.168 17.9429 10.9441 18.1667 10.668 18.1667C10.3918 18.1667 10.168 17.9429 10.168 17.6667V11.6667C10.168 11.3906 10.3918 11.1667 10.668 11.1667C10.9441 11.1667 11.168 11.3906 11.168 11.6667V17.6667ZM14.0039 18.1667C14.28 18.1667 14.5039 17.9429 14.5039 17.6667V11.6667C14.5039 11.3906 14.28 11.1667 14.0039 11.1667C13.7278 11.1667 13.5039 11.3906 13.5039 11.6667V17.6667C13.5039 17.9429 13.7278 18.1667 14.0039 18.1667Z" fill="#3049A0"/>
<path fill-rule="evenodd" clip-rule="evenodd" d="M15.8333 6.66667H19C19.3682 6.66667 19.6667 6.96514 19.6667 7.33333C19.6667 7.70152 19.3682 8 19 8H5.66667C5.29848 8 5 7.70152 5 7.33333C5 6.96514 5.29848 6.66667 5.66667 6.66667H8.83333C8.87754 6.66667 8.91993 6.64911 8.95118 6.61785C8.98244 6.5866 9 6.5442 9 6.5V5.66667C9 4.74619 9.74619 4 10.6667 4H14C14.9205 4 15.6667 4.74619 15.6667 5.66667V6.5C15.6667 6.59205 15.7413 6.66667 15.8333 6.66667ZM10.332 5.66659V6.49992C10.332 6.59197 10.4067 6.66659 10.4987 6.66659H14.1654C14.2574 6.66659 14.332 6.59197 14.332 6.49992V5.66659C14.332 5.48249 14.1828 5.33325 13.9987 5.33325H10.6654C10.4813 5.33325 10.332 5.48249 10.332 5.66659Z" fill="#3049A0"/>
</svg>
